<svg width="1024" height="1024" viewBox="0 0 1024 1024" fill="none" xmlns="http://www.w3.org/2000/svg">
<rect width="1024" height="1024" rx="248" fill="white"/>
<rect x="2" y="2" width="1020" height="1020" rx="246" stroke="black" stroke-opacity="0.25" stroke-width="4"/>
<rect x="243" y="366" width="545" height="47" rx="23.5" fill="black"/>
<rect x="207" y="529.648" width="544" height="47.6335" rx="23.8167" fill="#FFCC00"/>
<rect x="243" y="612" width="419" height="47" rx="23.5" fill="black"/>
<rect x="340" y="694" width="378" height="47" rx="23.5" fill="black"/>
<rect x="296" y="775.438" width="488" height="47.6335" rx="23.8167" fill="black"/>
<rect x="393" y="857.367" width="325" height="47.6335" rx="23.8167" fill="black"/>
<rect x="385" y="202" width="366" height="48" rx="24" fill="black"/>
<rect x="286" y="283.859" width="487" height="47.6335" rx="23.8167" fill="black"/>
<rect x="385.001" y="120" width="167" height="48" rx="24" fill="black"/>
<rect x="207" y="447.719" width="610" height="47.6335" rx="23.8167" fill="#FF0000"/>
</svg>
